<svg xmlns="http://www.w3.org/2000/svg" xmlns:xlink="http://www.w3.org/1999/xlink" viewBox="0,0,256,256" width="32px" height="32px" fill-rule="nonzero"><g fill="#ff3a5e" fill-rule="nonzero" stroke="none" stroke-width="1" stroke-linecap="butt" stroke-linejoin="miter" stroke-miterlimit="10" stroke-dasharray="" stroke-dashoffset="0" font-family="none" font-weight="none" font-size="none" text-anchor="none" style="mix-blend-mode: normal"><g transform="scale(8,8)"><path d="M12,3v3h-4v20h4v3h2v-3h2v3h2v-3h1.5c3.02734,0 5.5,-2.47266 5.5,-5.5c0,-2.08203 -1.16016,-3.91016 -2.875,-4.84375c1.15625,-1.01172 1.875,-2.50781 1.875,-4.15625c0,-3.02734 -2.47266,-5.5 -5.5,-5.5h-0.5v-3h-2v3h-2v-3zM10,8h8.5c1.94531,0 3.5,1.55469 3.5,3.5c0,1.94531 -1.55469,3.5 -3.5,3.5h-8.5zM10,17h9.5c1.94531,0 3.5,1.55469 3.5,3.5c0,1.94531 -1.55469,3.5 -3.5,3.5h-9.5z"></path></g></g></svg>